<svg width="500" height="316" viewBox="0 0 500 316" fill="none" xmlns="http://www.w3.org/2000/svg">
<path d="M330.594 122.178V151.295L337.114 155.073L362.341 140.515L330.594 122.178Z" stroke="#010B17" stroke-width="6" stroke-linecap="round" stroke-linejoin="round"/>
<path d="M103.503 224.016V298.105L14.707 246.835V172.746L78.8684 209.791L103.503 224.016Z" fill="white" stroke="#010B17" stroke-width="6" stroke-linecap="round" stroke-linejoin="round"/>
<path d="M179.12 180.336V254.425L103.512 298.101V224.012L114.996 217.381L140.187 202.822L172.638 184.077L179.12 180.336Z" fill="white" stroke="#010B17" stroke-width="6" stroke-linecap="round" stroke-linejoin="round"/>
<path d="M305.218 107.542V136.807L280.028 151.403V122.101L273.508 118.322V89.2422L280.583 93.3171L305.218 107.542Z" stroke="#010B17" stroke-width="6" stroke-linecap="round" stroke-linejoin="round"/>
<path d="M318.538 231.676V305.765L229.742 254.495V180.406L268.528 202.818L293.904 217.451L318.538 231.676Z" fill="white" stroke="#010B17" stroke-width="6" stroke-linecap="round" stroke-linejoin="round"/>
<path d="M394.191 188.012V262.101L318.547 305.777V231.688L330.031 225.056L355.184 210.498L387.708 191.754L394.191 188.012Z" fill="white" stroke="#010B17" stroke-width="6" stroke-linecap="round" stroke-linejoin="round"/>
<path d="M273.491 89.2422V118.322L255.339 107.875L248.301 103.8L273.491 89.2422Z" fill="white" stroke="#010B17" stroke-width="6" stroke-linecap="round" stroke-linejoin="round"/>
<path d="M494.991 129.768V203.857L419.383 247.533V173.443L430.867 166.812L494.991 129.768Z" fill="white" stroke="#010B17" stroke-width="6" stroke-linecap="round" stroke-linejoin="round"/>
<path d="M495.018 129.767L430.893 166.812L419.41 173.443L394.738 159.218L387.699 155.143L362.436 169.702L369.511 173.776L387.699 184.26L394.182 188.001L387.699 191.743L355.175 210.488L330.022 225.046L318.538 231.677L293.904 217.452L268.528 202.819L229.742 180.408L273.492 155.143L280.012 151.401L305.202 136.806L305.387 136.732L330.577 151.291L337.097 155.069L362.325 140.511L330.577 122.174L342.062 115.543L380.846 93.1673L406.222 78.498L495.018 129.767Z" fill="#34A853" stroke="#010B17" stroke-width="6" stroke-linecap="round" stroke-linejoin="round"/>
<path d="M387.67 155.145V184.262L369.481 173.778L362.406 169.703L387.67 155.145Z" stroke="#010B17" stroke-width="6" stroke-linecap="round" stroke-linejoin="round"/>
<path d="M419.402 173.445V247.534L394.174 232.975V188.003L387.691 184.262V155.145L394.73 159.22L419.402 173.445Z" fill="#D9D9D9" stroke="#010B17" stroke-width="6" stroke-linecap="round" stroke-linejoin="round"/>
<path d="M380.844 63.8633V93.1652L342.059 115.54L330.575 122.171V151.288L305.384 136.73L305.199 136.804V107.538L316.683 100.908L380.844 63.8633Z" fill="white" stroke="#010B17" stroke-width="6" stroke-linecap="round" stroke-linejoin="round"/>
<path d="M279.993 122.105V151.407L273.473 155.149L229.724 180.414V225.2L204.348 239.87V165.781L215.832 159.15L241.059 144.591L273.473 125.884L279.993 122.105Z" fill="white" stroke="#010B17" stroke-width="6" stroke-linecap="round" stroke-linejoin="round"/>
<path d="M248.105 74.577L222.914 89.1359L216.395 85.3573V56.2773L248.105 74.577Z" stroke="#010B17" stroke-width="6" stroke-linecap="round" stroke-linejoin="round"/>
<path d="M380.855 63.8636L316.695 100.908L305.21 107.539L280.576 93.3141L273.501 89.2392L248.31 103.797L255.348 107.872L273.501 118.319L280.021 122.098L273.501 125.876L241.087 144.583L215.859 159.142L204.375 165.773L179.741 151.548L172.629 147.436L147.438 161.995L154.55 166.107L172.629 176.59L179.111 180.332L172.629 184.073L140.178 202.817L114.987 217.376L103.503 224.007L78.8684 209.782L14.707 172.737L90.3148 129.062L115.579 143.62L122.062 147.362L147.29 132.804L115.579 114.503L191.188 70.8277L216.415 85.3495L222.934 89.128L248.125 74.5692L216.415 56.2695L292.06 12.5938L380.855 63.8636Z" fill="#34A853" stroke="#010B17" stroke-width="6" stroke-linecap="round" stroke-linejoin="round"/>
<path d="M172.601 147.441V176.595L154.522 166.112L147.41 162L172.601 147.441Z" fill="white" stroke="#010B17" stroke-width="6" stroke-linecap="round" stroke-linejoin="round"/>
<path d="M204.336 165.778V239.868L179.073 225.272V180.337L172.59 176.595V147.441L179.702 151.553L204.336 165.778Z" fill="white" stroke="#010B17" stroke-width="6" stroke-linecap="round" stroke-linejoin="round"/>
<path d="M147.281 132.804L122.053 147.362L115.57 143.621V114.504L147.281 132.804Z" fill="white" stroke="#010B17" stroke-width="6" stroke-linecap="round" stroke-linejoin="round"/>
</svg>
