<svg width="380" height="380" viewBox="0 0 380 380" fill="none" xmlns="http://www.w3.org/2000/svg">
<path d="M276.024 177.638L351.298 184.513L325.734 249.976L250.46 243.551V343.318L199.298 372.855V273.087L181.369 295.335L161.091 320.484L141.987 344.182L124.058 366.429L98.4944 330.467L130.207 290.947L173.734 236.711L98.4944 230.251L124.058 164.787L199.298 171.213V71.031L220.233 58.9401L250.46 41.4946V141.676L325.734 48.3346L351.298 84.2964L293.711 155.702L276.024 177.638Z" fill="#EA4336" stroke="#010B17" stroke-width="6" stroke-linecap="round" stroke-linejoin="round"/>
<path d="M124.062 164.786L98.4985 230.249L86.7879 224.411L29.4075 195.704L54.9716 130.24L124.062 164.786Z" fill="white" stroke="#010B17" stroke-width="6" stroke-linecap="round" stroke-linejoin="round"/>
<path d="M173.738 236.701L130.212 290.938L98.4985 330.458L29.4075 295.912L86.7879 224.403L98.4985 230.242L173.738 236.701Z" fill="white" stroke="#010B17" stroke-width="6" stroke-linecap="round" stroke-linejoin="round"/>
<path d="M199.285 171.211L124.045 164.786L54.9536 130.24L130.194 136.666L199.285 171.211Z" fill="white" stroke="#010B17" stroke-width="6" stroke-linecap="round" stroke-linejoin="round"/>
<path d="M250.453 141.672V41.4902L238.95 35.7211L256.637 13.7847L325.728 48.3302L250.453 141.672Z" fill="white" stroke="#010B17" stroke-width="6" stroke-linecap="round" stroke-linejoin="round"/>
<path d="M250.436 41.4878L220.209 58.9333L199.275 71.0242L181.345 62.0769L130.184 36.4787L181.345 6.94238L238.933 35.7187L250.436 41.4878Z" fill="white" stroke="#010B17" stroke-width="6" stroke-linecap="round" stroke-linejoin="round"/>
<path d="M199.275 71.0259V171.208L130.184 136.662V36.4805L181.345 62.0787L199.275 71.0259Z" fill="white" stroke="#010B17" stroke-width="6" stroke-linecap="round" stroke-linejoin="round"/>
<path d="M124.062 366.423L54.9716 331.877L29.4075 295.916L98.4985 330.461L124.062 366.423Z" fill="white" stroke="#010B17" stroke-width="6" stroke-linecap="round" stroke-linejoin="round"/>
<path d="M199.283 273.08V372.847L141.972 344.174L161.076 320.476L181.354 295.327L199.283 273.08Z" fill="white" stroke="#010B17" stroke-width="6" stroke-linecap="round" stroke-linejoin="round"/>
<path d="M351.308 184.507L276.034 177.633L293.721 155.696L351.308 184.507Z" fill="white" stroke="#010B17" stroke-width="6" stroke-linecap="round" stroke-linejoin="round"/>
</svg>
