<svg width="425" height="386" viewBox="0 0 425 386" fill="none" xmlns="http://www.w3.org/2000/svg">
<path d="M112.751 235.984C97.5383 264.454 89.9318 291.838 89.9318 318.178C89.9318 321.916 90.0622 325.481 90.4099 328.914C92.3659 351.821 101.059 367.686 116.446 376.553L96.017 366.382L81.9776 359.384L81.8037 359.297L81.6298 359.167C81.0213 358.732 80.3693 358.384 79.6739 358.21L79.4566 358.123L34.4258 335.565L29.775 333.261C11.9105 323.09 3 303.574 3 274.712C3 248.372 10.6065 220.989 25.8196 192.519C41.0327 164.048 59.8535 141.62 82.2384 125.19L169.17 168.656C146.785 185.086 127.964 207.514 112.751 235.984Z" fill="white" stroke="#010B17" stroke-width="10" stroke-linecap="round" stroke-linejoin="round"/>
<path d="M320.696 50.4258C305.135 43.9928 287.184 45.3837 266.929 54.7724C263.278 56.4241 259.54 58.38 255.758 60.5533C237.502 71.072 220.725 85.9374 205.381 105.106C190.038 124.274 177.911 145.486 169.087 168.653L82.1555 125.187C90.9791 102.02 103.106 80.8084 118.449 61.64C133.793 42.4715 150.571 27.6063 168.826 17.0876C193.732 2.7004 215.378 -0.646471 233.764 6.96005L240.328 10.22L240.458 10.3069L320.696 50.4258Z" fill="white" stroke="#010B17" stroke-width="10" stroke-linecap="round" stroke-linejoin="round"/>
<path d="M421.725 145.619C421.725 169.438 414.466 193.866 399.949 218.902C385.388 243.939 367.784 262.455 347.051 274.408L344.313 275.973L310.105 295.75L273.985 316.614L244.819 333.435L210.525 353.255L181.142 370.207C178.838 371.554 176.534 372.771 174.274 373.901C154.541 383.768 137.198 385.594 122.246 379.465L116.638 376.727L116.378 376.553C100.991 367.686 92.2976 351.821 90.3417 328.914C89.9939 325.48 89.8635 321.916 89.8635 318.178C89.8635 291.838 97.47 264.454 112.683 235.984C127.896 207.514 146.717 185.086 169.102 168.656C177.925 145.488 190.052 124.278 205.396 105.109C220.739 85.9406 237.517 71.0753 255.773 60.5566C259.554 58.3833 263.292 56.4269 266.943 54.7752C287.198 45.3866 305.15 43.9957 320.711 50.4286C330.099 54.3405 337.575 60.5127 343.182 68.9451C348.572 77.0732 352.223 87.2007 354.092 99.4581C370.696 91.5473 384.997 90.3737 396.993 95.8939L398.993 96.8936C400.079 97.4587 401.166 98.1106 402.209 98.8061C415.205 107.499 421.725 123.104 421.725 145.619Z" fill="#FAAB00" stroke="#010B17" stroke-width="10" stroke-linecap="round" stroke-linejoin="round"/>
<path d="M397.036 95.8834C385.039 90.3632 370.739 91.5368 354.135 99.4476C352.266 87.1902 348.615 77.0627 343.225 68.978L397.036 95.8834Z" fill="white" stroke="#010B17" stroke-width="10" stroke-linecap="round" stroke-linejoin="round"/>
</svg>
