<svg width="184" height="179" viewBox="0 0 184 179" fill="none" xmlns="http://www.w3.org/2000/svg">
<path d="M145.861 108.71C153.04 121.61 156.709 134.06 156.869 146.08C156.891 147.786 156.853 149.413 156.713 150.982C155.951 161.448 152.043 168.741 145.01 172.881L154.357 168.115L160.781 164.836L160.861 164.795L160.94 164.734C161.218 164.532 161.516 164.37 161.835 164.286L161.935 164.245L182.539 153.675L184.667 152.596C192.834 147.845 196.82 138.885 196.645 125.714C196.486 113.693 192.817 101.244 185.638 88.3442C178.459 75.4448 169.654 65.3245 159.245 57.9634L119.468 78.3296C129.878 85.6908 138.682 95.811 145.861 108.71Z" fill="white" stroke="#010B17" stroke-width="6" stroke-linecap="round" stroke-linejoin="round"/>
<path d="M48.9616 25.3008C56.0898 22.2701 64.3664 22.7953 73.7524 26.9561C75.4441 27.6876 77.1776 28.5573 78.9325 29.526C87.4045 34.2148 95.2221 40.8961 102.405 49.5499C109.588 58.2037 115.302 67.8094 119.506 78.3278L159.283 57.9616C155.079 47.4431 149.365 37.8374 142.182 29.1836C134.999 20.5298 127.181 13.8486 118.709 9.15983C107.151 2.74633 97.1608 1.35115 88.7384 4.93461L85.7351 6.46234L85.6756 6.50279L48.9616 25.3008Z" fill="white" stroke="#010B17" stroke-width="6" stroke-linecap="round" stroke-linejoin="round"/>
<path d="M3.00458 69.3587C3.14866 80.2286 6.63975 91.3318 13.4778 102.668C20.3359 114.005 28.556 122.347 38.1777 127.675L39.4484 128.373L55.3237 137.189L72.0864 146.49L85.6215 153.988L101.537 162.824L115.173 170.38C116.242 170.981 117.311 171.522 118.358 172.024C127.507 176.406 135.506 177.134 142.356 174.245L144.922 172.962L145.041 172.881C152.074 168.74 155.982 161.447 156.745 150.982C156.884 149.413 156.923 147.786 156.9 146.08C156.741 134.059 153.072 121.609 145.892 108.71C138.713 95.8106 129.909 85.6904 119.499 78.3292C115.295 67.8108 109.581 58.2053 102.398 49.5515C95.2154 40.8977 87.3978 34.2164 78.9259 29.5276C77.171 28.5589 75.4374 27.689 73.7458 26.9575C64.3597 22.7967 56.0831 22.2715 48.9549 25.3022C44.6543 27.1447 41.2482 30.007 38.7167 33.8893C36.2834 37.6315 34.663 42.2754 33.8763 47.8805C26.1808 44.3718 19.5872 43.9235 14.0951 46.5159L13.1802 46.9843C12.6832 47.2488 12.1866 47.5529 11.7103 47.8767C5.77699 51.9231 2.86839 59.0839 3.00458 69.3587Z" fill="#FAAB00" stroke="#010B17" stroke-width="6" stroke-linecap="round" stroke-linejoin="round"/>
<path d="M14.0754 46.5114C19.5675 43.919 26.1612 44.3673 33.8566 47.876C34.6433 42.2709 36.2637 37.627 38.6973 33.9047L14.0754 46.5114Z" fill="white" stroke="#010B17" stroke-width="6" stroke-linecap="round" stroke-linejoin="round"/>
</svg>
