<svg width="419" height="247" viewBox="0 0 419 247" fill="none" xmlns="http://www.w3.org/2000/svg">
<path d="M366.092 85.8596C376.9 85.8596 386.089 82.0611 393.648 74.4532C401.208 66.8561 404.999 57.6203 404.999 46.7566C404.999 35.8928 401.219 26.6678 393.648 19.0599C386.089 11.4629 376.9 7.6535 366.092 7.6535H239.804C228.997 7.6535 219.808 11.452 212.248 19.0599C204.688 26.657 200.898 35.8928 200.898 46.7566C200.898 57.6203 204.677 66.8453 212.248 74.4532C219.808 82.0502 228.997 85.8596 239.804 85.8596H366.092Z" fill="#FF5145" stroke="#202124" stroke-width="5.40007" stroke-miterlimit="10"/>
<path d="M354.665 58.4127C351.472 55.2111 349.886 51.3258 349.886 46.7676C349.886 42.2094 351.483 38.324 354.665 35.1224C357.859 31.9208 361.715 30.3146 366.255 30.3146C370.795 30.3146 374.662 31.9208 377.844 35.1224C381.037 38.324 382.623 42.2094 382.623 46.7676C382.623 51.3258 381.027 55.2111 377.844 58.4127C374.662 61.6144 370.795 63.2206 366.255 63.2206C361.715 63.2206 357.848 61.6144 354.665 58.4127Z" fill="#FFBB00" stroke="#202124" stroke-width="5.40007" stroke-miterlimit="10"/>
<path d="M162.002 85.8596C172.809 85.8596 181.998 82.0611 189.558 74.4532C197.118 66.8561 200.908 57.6203 200.908 46.7566C200.908 35.8928 197.128 26.6678 189.558 19.0599C181.998 11.4629 172.809 7.6535 162.002 7.6535H53.505C42.6976 7.6535 33.5087 11.452 25.949 19.0599C18.3893 26.657 14.5986 35.8928 14.5986 46.7566C14.5986 57.6203 18.3784 66.8453 25.949 74.4532C33.5087 82.0502 42.6976 85.8596 53.505 85.8596H162.002Z" fill="#3D8AFF" stroke="#202124" stroke-width="5.40007" stroke-miterlimit="10"/>
<path d="M150.575 58.4127C147.382 55.2111 145.796 51.3258 145.796 46.7676C145.796 42.2094 147.392 38.324 150.575 35.1224C153.768 31.9208 157.624 30.3146 162.164 30.3146C166.704 30.3146 170.571 31.9208 173.754 35.1224C176.947 38.324 178.533 42.2094 178.533 46.7676C178.533 51.3258 176.936 55.2111 173.754 58.4127C170.56 61.6144 166.704 63.2206 162.164 63.2206C157.624 63.2206 153.757 61.6144 150.575 58.4127Z" fill="#FF5145" stroke="#202124" stroke-width="5.40007" stroke-miterlimit="10"/>
<path d="M330.726 164.23C319.918 164.23 310.729 160.432 303.17 152.824C295.61 145.227 291.819 135.991 291.819 125.127C291.819 114.264 295.599 105.039 303.17 97.4308C310.729 89.8337 319.918 86.0243 330.726 86.0243H366.091C376.898 86.0243 386.087 89.8229 393.647 97.4308C401.207 105.028 404.998 114.264 404.998 125.127C404.998 135.991 401.218 145.216 393.647 152.824C386.087 160.421 376.898 164.23 366.091 164.23H330.726Z" fill="#E7E9EC" stroke="#202124" stroke-width="5.40007" stroke-miterlimit="10"/>
<path d="M342.163 136.784C345.357 133.582 346.942 129.697 346.942 125.139C346.942 120.58 345.346 116.695 342.163 113.493C338.97 110.292 335.114 108.685 330.574 108.685C326.034 108.685 322.167 110.292 318.985 113.493C315.791 116.695 314.205 120.58 314.205 125.139C314.205 129.697 315.802 133.582 318.985 136.784C322.178 139.985 326.034 141.592 330.574 141.592C335.114 141.592 338.981 139.985 342.163 136.784Z" fill="#38A852" stroke="#202124" stroke-width="5.40007" stroke-miterlimit="10"/>
<path d="M52.7638 164.024C41.9456 164.024 32.7475 160.235 25.1802 152.647C17.6129 145.07 13.8185 135.858 13.8185 125.023C13.8185 114.188 17.6021 104.987 25.1802 97.3992C32.7475 89.822 41.9456 86.0226 52.7638 86.0226H253.003C263.821 86.0226 273.019 89.8112 280.586 97.3992C288.153 104.976 291.948 114.188 291.948 125.023C291.948 135.858 288.164 145.059 280.586 152.647C273.019 160.224 263.821 164.024 253.003 164.024H52.7638Z" fill="#FFBB00" stroke="#202124" stroke-width="5.40007" stroke-miterlimit="10"/>
<path d="M68.1421 136.784C71.5777 133.582 73.2838 129.697 73.2838 125.139C73.2838 120.58 71.566 116.695 68.1421 113.493C64.7066 110.292 60.5582 108.685 55.6736 108.685C50.789 108.685 46.6289 110.292 43.205 113.493C39.7694 116.695 38.0633 120.58 38.0633 125.139C38.0633 129.697 39.7811 133.582 43.205 136.784C46.6289 139.985 50.789 141.592 55.6736 141.592C60.5582 141.592 64.7183 139.985 68.1421 136.784Z" fill="#FF5145" stroke="#202124" stroke-width="5.40007" stroke-miterlimit="10"/>
<path d="M368.815 164.022C378.911 164.022 387.495 167.81 394.557 175.398C401.619 182.975 405.16 192.187 405.16 203.022C405.16 213.857 401.629 223.058 394.557 230.646C387.495 238.223 378.911 242.023 368.815 242.023H211.514C201.418 242.023 192.834 238.234 185.772 230.646C178.71 223.069 175.169 213.857 175.169 203.022C175.169 192.187 178.7 182.986 185.772 175.398C192.834 167.821 201.418 164.022 211.514 164.022H368.815Z" fill="#38A852" stroke="#202124" stroke-width="5.40007" stroke-miterlimit="10"/>
<path d="M215.379 186.673C210.839 186.673 206.972 188.28 203.789 191.481C200.596 194.683 199.01 198.568 199.01 203.126C199.01 207.685 200.607 211.57 203.789 214.771C206.983 217.973 210.839 219.579 215.379 219.579C219.919 219.579 223.786 217.973 226.968 214.771C230.162 211.57 231.747 207.685 231.747 203.126C231.747 198.568 230.151 194.683 226.968 191.481C223.775 188.28 219.919 186.673 215.379 186.673Z" fill="#FF5145" stroke="#202124" stroke-width="5.40007" stroke-miterlimit="10"/>
<path d="M131.442 164.022C143.588 164.022 153.915 167.81 162.412 175.398C170.908 182.975 175.168 192.187 175.168 203.022C175.168 213.857 170.92 223.058 162.412 230.646C153.915 238.223 143.588 242.023 131.442 242.023H58.8815C46.7352 242.023 36.4078 238.234 27.9115 230.646C19.4152 223.069 15.1549 213.857 15.1549 203.022C15.1549 192.187 19.403 182.986 27.9115 175.398C36.4078 167.821 46.7352 164.022 58.8815 164.022H131.442Z" fill="#E7E9EC" stroke="#202124" stroke-width="5.40007" stroke-miterlimit="10"/>
<path d="M53.9728 186.673C49.4326 186.673 45.5659 188.279 42.3834 191.481C39.1901 194.682 37.6043 198.568 37.6043 203.126C37.6043 207.684 39.201 211.57 42.3834 214.771C45.5659 217.973 49.4326 219.579 53.9728 219.579C58.513 219.579 62.3797 217.973 65.5622 214.771C68.7555 211.57 70.3413 207.684 70.3413 203.126C70.3413 198.568 68.7447 194.682 65.5622 191.481C62.3689 188.279 58.513 186.673 53.9728 186.673Z" fill="#38A852" stroke="#202124" stroke-width="5.40007" stroke-miterlimit="10"/>
<path d="M114.088 133.063C113.136 134.183 111.988 135.07 110.644 135.723C109.3 136.358 107.788 136.675 106.108 136.675C104.615 136.675 103.233 136.414 101.964 135.891C100.695 135.35 99.5839 134.613 98.6319 133.679C97.6985 132.727 96.9612 131.617 96.4199 130.347C95.8972 129.078 95.6359 127.697 95.6359 126.203C95.6359 124.729 95.8972 123.357 96.4199 122.087C96.9612 120.799 97.6985 119.689 98.6319 118.755C99.5839 117.803 100.695 117.066 101.964 116.543C103.233 116.002 104.615 115.731 106.108 115.731C107.657 115.731 109.048 116.021 110.28 116.599C111.512 117.159 112.595 117.962 113.528 119.007L111.288 121.191C110.616 120.389 109.86 119.782 109.02 119.371C108.199 118.961 107.228 118.755 106.108 118.755C105.119 118.755 104.176 118.933 103.28 119.287C102.403 119.623 101.637 120.118 100.984 120.771C100.331 121.406 99.8079 122.19 99.4159 123.123C99.0425 124.038 98.8559 125.065 98.8559 126.203C98.8559 127.342 99.0425 128.378 99.4159 129.311C99.8079 130.226 100.331 131.01 100.984 131.663C101.637 132.298 102.403 132.793 103.28 133.147C104.176 133.483 105.119 133.651 106.108 133.651C107.303 133.651 108.367 133.409 109.3 132.923C110.233 132.419 111.064 131.729 111.792 130.851L114.088 133.063ZM122.513 122.059C123.558 122.059 124.519 122.246 125.397 122.619C126.274 122.974 127.03 123.478 127.665 124.131C128.299 124.785 128.794 125.559 129.149 126.455C129.503 127.351 129.681 128.322 129.681 129.367C129.681 130.413 129.503 131.383 129.149 132.279C128.794 133.175 128.299 133.95 127.665 134.603C127.03 135.257 126.274 135.77 125.397 136.143C124.519 136.498 123.558 136.675 122.513 136.675C121.467 136.675 120.506 136.498 119.629 136.143C118.751 135.77 117.995 135.257 117.361 134.603C116.726 133.95 116.231 133.175 115.877 132.279C115.522 131.383 115.345 130.413 115.345 129.367C115.345 128.322 115.522 127.351 115.877 126.455C116.231 125.559 116.726 124.785 117.361 124.131C117.995 123.478 118.751 122.974 119.629 122.619C120.506 122.246 121.467 122.059 122.513 122.059ZM122.513 133.791C123.035 133.791 123.539 133.689 124.025 133.483C124.51 133.278 124.939 132.989 125.313 132.615C125.705 132.242 126.013 131.785 126.237 131.243C126.461 130.683 126.573 130.058 126.573 129.367C126.573 128.677 126.461 128.061 126.237 127.519C126.013 126.959 125.705 126.493 125.313 126.119C124.939 125.746 124.51 125.457 124.025 125.251C123.539 125.046 123.035 124.943 122.513 124.943C121.99 124.943 121.486 125.046 121.001 125.251C120.515 125.457 120.077 125.746 119.685 126.119C119.311 126.493 119.013 126.959 118.789 127.519C118.565 128.061 118.453 128.677 118.453 129.367C118.453 130.058 118.565 130.683 118.789 131.243C119.013 131.785 119.311 132.242 119.685 132.615C120.077 132.989 120.515 133.278 121.001 133.483C121.486 133.689 121.99 133.791 122.513 133.791ZM131.906 136.227V116.179H135.014V136.227H131.906ZM138.141 136.227V116.179H141.249V136.227H138.141ZM152.918 134.547H152.75C152.34 135.089 151.807 135.583 151.154 136.031C150.501 136.461 149.67 136.675 148.662 136.675C147.934 136.675 147.253 136.554 146.618 136.311C145.983 136.087 145.433 135.77 144.966 135.359C144.499 134.93 144.126 134.435 143.846 133.875C143.585 133.297 143.454 132.662 143.454 131.971C143.454 131.243 143.594 130.59 143.874 130.011C144.173 129.433 144.574 128.947 145.078 128.555C145.601 128.163 146.217 127.865 146.926 127.659C147.635 127.435 148.401 127.323 149.222 127.323C150.137 127.323 150.902 127.417 151.518 127.603C152.134 127.771 152.601 127.93 152.918 128.079V127.547C152.918 127.137 152.825 126.754 152.638 126.399C152.47 126.045 152.227 125.746 151.91 125.503C151.611 125.242 151.266 125.046 150.874 124.915C150.482 124.766 150.071 124.691 149.642 124.691C148.951 124.691 148.326 124.831 147.766 125.111C147.225 125.373 146.739 125.802 146.31 126.399L143.846 124.775C144.499 123.879 145.311 123.207 146.282 122.759C147.253 122.293 148.354 122.059 149.586 122.059C151.621 122.059 153.189 122.563 154.29 123.571C155.41 124.579 155.97 126.017 155.97 127.883V136.227H152.918V134.547ZM152.918 130.515C152.507 130.273 152.05 130.077 151.546 129.927C151.042 129.778 150.463 129.703 149.81 129.703C148.839 129.703 148.065 129.927 147.486 130.375C146.907 130.823 146.618 131.365 146.618 131.999C146.618 132.335 146.693 132.634 146.842 132.895C146.991 133.138 147.178 133.353 147.402 133.539C147.645 133.726 147.915 133.866 148.214 133.959C148.531 134.053 148.849 134.099 149.166 134.099C149.67 134.099 150.146 134.006 150.594 133.819C151.061 133.614 151.462 133.353 151.798 133.035C152.134 132.699 152.405 132.317 152.61 131.887C152.816 131.458 152.918 131.001 152.918 130.515ZM158.894 116.179H162.002V122.367L161.834 124.271H162.002C162.376 123.674 162.945 123.161 163.71 122.731C164.476 122.283 165.39 122.059 166.454 122.059C167.332 122.059 168.162 122.246 168.946 122.619C169.749 122.974 170.449 123.478 171.046 124.131C171.644 124.785 172.12 125.559 172.474 126.455C172.829 127.333 173.006 128.303 173.006 129.367C173.006 130.431 172.829 131.411 172.474 132.307C172.12 133.185 171.644 133.95 171.046 134.603C170.449 135.257 169.749 135.77 168.946 136.143C168.162 136.498 167.332 136.675 166.454 136.675C165.39 136.675 164.476 136.461 163.71 136.031C162.945 135.583 162.376 135.061 162.002 134.463H161.834V136.227H158.894V116.179ZM165.866 133.791C166.389 133.791 166.893 133.689 167.378 133.483C167.882 133.278 168.312 132.989 168.666 132.615C169.04 132.223 169.338 131.757 169.562 131.215C169.786 130.674 169.898 130.058 169.898 129.367C169.898 128.677 169.786 128.061 169.562 127.519C169.338 126.978 169.04 126.521 168.666 126.147C168.312 125.755 167.882 125.457 167.378 125.251C166.893 125.046 166.389 124.943 165.866 124.943C165.325 124.943 164.812 125.046 164.326 125.251C163.841 125.457 163.412 125.746 163.038 126.119C162.684 126.493 162.394 126.959 162.17 127.519C161.946 128.061 161.834 128.677 161.834 129.367C161.834 130.058 161.946 130.683 162.17 131.243C162.394 131.785 162.684 132.242 163.038 132.615C163.412 132.989 163.841 133.278 164.326 133.483C164.812 133.689 165.325 133.791 165.866 133.791ZM181.739 122.059C182.785 122.059 183.746 122.246 184.623 122.619C185.501 122.974 186.257 123.478 186.891 124.131C187.526 124.785 188.021 125.559 188.375 126.455C188.73 127.351 188.907 128.322 188.907 129.367C188.907 130.413 188.73 131.383 188.375 132.279C188.021 133.175 187.526 133.95 186.891 134.603C186.257 135.257 185.501 135.77 184.623 136.143C183.746 136.498 182.785 136.675 181.739 136.675C180.694 136.675 179.733 136.498 178.855 136.143C177.978 135.77 177.222 135.257 176.587 134.603C175.953 133.95 175.458 133.175 175.103 132.279C174.749 131.383 174.571 130.413 174.571 129.367C174.571 128.322 174.749 127.351 175.103 126.455C175.458 125.559 175.953 124.785 176.587 124.131C177.222 123.478 177.978 122.974 178.855 122.619C179.733 122.246 180.694 122.059 181.739 122.059ZM181.739 133.791C182.262 133.791 182.766 133.689 183.251 133.483C183.737 133.278 184.166 132.989 184.539 132.615C184.931 132.242 185.239 131.785 185.463 131.243C185.687 130.683 185.799 130.058 185.799 129.367C185.799 128.677 185.687 128.061 185.463 127.519C185.239 126.959 184.931 126.493 184.539 126.119C184.166 125.746 183.737 125.457 183.251 125.251C182.766 125.046 182.262 124.943 181.739 124.943C181.217 124.943 180.713 125.046 180.227 125.251C179.742 125.457 179.303 125.746 178.911 126.119C178.538 126.493 178.239 126.959 178.015 127.519C177.791 128.061 177.679 128.677 177.679 129.367C177.679 130.058 177.791 130.683 178.015 131.243C178.239 131.785 178.538 132.242 178.911 132.615C179.303 132.989 179.742 133.278 180.227 133.483C180.713 133.689 181.217 133.791 181.739 133.791ZM190.996 122.507H193.936V124.579H194.104C194.272 124.225 194.496 123.898 194.776 123.599C195.075 123.282 195.401 123.021 195.756 122.815C196.129 122.591 196.512 122.423 196.904 122.311C197.315 122.181 197.707 122.115 198.08 122.115C198.528 122.115 198.911 122.153 199.228 122.227C199.545 122.302 199.835 122.405 200.096 122.535L199.2 125.419C198.995 125.326 198.761 125.261 198.5 125.223C198.257 125.167 197.959 125.139 197.604 125.139C197.1 125.139 196.633 125.242 196.204 125.447C195.793 125.653 195.429 125.933 195.112 126.287C194.795 126.642 194.543 127.062 194.356 127.547C194.188 128.033 194.104 128.546 194.104 129.087V136.227H190.996V122.507ZM209.903 134.547H209.735C209.324 135.089 208.792 135.583 208.139 136.031C207.485 136.461 206.655 136.675 205.647 136.675C204.919 136.675 204.237 136.554 203.603 136.311C202.968 136.087 202.417 135.77 201.951 135.359C201.484 134.93 201.111 134.435 200.831 133.875C200.569 133.297 200.439 132.662 200.439 131.971C200.439 131.243 200.579 130.59 200.859 130.011C201.157 129.433 201.559 128.947 202.063 128.555C202.585 128.163 203.201 127.865 203.911 127.659C204.62 127.435 205.385 127.323 206.207 127.323C207.121 127.323 207.887 127.417 208.503 127.603C209.119 127.771 209.585 127.93 209.903 128.079V127.547C209.903 127.137 209.809 126.754 209.623 126.399C209.455 126.045 209.212 125.746 208.895 125.503C208.596 125.242 208.251 125.046 207.859 124.915C207.467 124.766 207.056 124.691 206.627 124.691C205.936 124.691 205.311 124.831 204.751 125.111C204.209 125.373 203.724 125.802 203.295 126.399L200.831 124.775C201.484 123.879 202.296 123.207 203.267 122.759C204.237 122.293 205.339 122.059 206.571 122.059C208.605 122.059 210.173 122.563 211.275 123.571C212.395 124.579 212.955 126.017 212.955 127.883V136.227H209.903V134.547ZM209.903 130.515C209.492 130.273 209.035 130.077 208.531 129.927C208.027 129.778 207.448 129.703 206.795 129.703C205.824 129.703 205.049 129.927 204.471 130.375C203.892 130.823 203.603 131.365 203.603 131.999C203.603 132.335 203.677 132.634 203.827 132.895C203.976 133.138 204.163 133.353 204.387 133.539C204.629 133.726 204.9 133.866 205.199 133.959C205.516 134.053 205.833 134.099 206.151 134.099C206.655 134.099 207.131 134.006 207.579 133.819C208.045 133.614 208.447 133.353 208.783 133.035C209.119 132.699 209.389 132.317 209.595 131.887C209.8 131.458 209.903 131.001 209.903 130.515ZM217.117 125.251H214.709V122.507H217.117V118.307H220.225V122.507H223.613V125.251H220.225V131.355C220.225 131.691 220.263 131.999 220.337 132.279C220.412 132.559 220.524 132.793 220.673 132.979C220.991 133.334 221.392 133.511 221.877 133.511C222.176 133.511 222.409 133.493 222.577 133.455C222.745 133.399 222.923 133.325 223.109 133.231L224.061 135.975C223.669 136.125 223.259 136.237 222.829 136.311C222.4 136.405 221.915 136.451 221.373 136.451C220.72 136.451 220.141 136.349 219.637 136.143C219.133 135.938 218.695 135.658 218.321 135.303C217.519 134.501 217.117 133.409 217.117 132.027V125.251ZM238.763 132.951C238.184 134.015 237.363 134.902 236.299 135.611C235.235 136.321 233.928 136.675 232.379 136.675C231.352 136.675 230.4 136.498 229.523 136.143C228.664 135.77 227.917 135.257 227.283 134.603C226.648 133.95 226.153 133.185 225.799 132.307C225.444 131.411 225.267 130.431 225.267 129.367C225.267 128.378 225.435 127.445 225.771 126.567C226.107 125.671 226.573 124.897 227.171 124.243C227.787 123.571 228.524 123.039 229.383 122.647C230.241 122.255 231.193 122.059 232.239 122.059C233.303 122.059 234.245 122.237 235.067 122.591C235.907 122.946 236.616 123.441 237.195 124.075C237.773 124.71 238.212 125.475 238.511 126.371C238.828 127.267 238.987 128.247 238.987 129.311C238.987 129.405 238.987 129.489 238.987 129.563C238.968 129.657 238.959 129.741 238.959 129.815C238.94 129.89 238.931 129.965 238.931 130.039H228.375C228.431 130.693 228.589 131.262 228.851 131.747C229.112 132.233 229.429 132.634 229.803 132.951C230.195 133.269 230.624 133.502 231.091 133.651C231.557 133.801 232.015 133.875 232.463 133.875C233.359 133.875 234.096 133.661 234.675 133.231C235.253 132.802 235.729 132.27 236.103 131.635L238.763 132.951ZM235.879 127.659C235.841 127.379 235.748 127.071 235.599 126.735C235.468 126.381 235.253 126.063 234.955 125.783C234.675 125.485 234.301 125.233 233.835 125.027C233.387 124.822 232.836 124.719 232.183 124.719C231.287 124.719 230.512 124.99 229.859 125.531C229.224 126.054 228.795 126.763 228.571 127.659H235.879Z" fill="black"/>
<path d="M269.088 211.063C268.136 212.183 266.988 213.07 265.644 213.723C264.3 214.358 262.788 214.675 261.108 214.675C259.615 214.675 258.233 214.414 256.964 213.891C255.695 213.35 254.584 212.613 253.632 211.679C252.699 210.727 251.961 209.617 251.42 208.347C250.897 207.078 250.636 205.697 250.636 204.203C250.636 202.729 250.897 201.357 251.42 200.087C251.961 198.799 252.699 197.689 253.632 196.755C254.584 195.803 255.695 195.066 256.964 194.543C258.233 194.002 259.615 193.731 261.108 193.731C262.657 193.731 264.048 194.021 265.28 194.599C266.512 195.159 267.595 195.962 268.528 197.007L266.288 199.191C265.616 198.389 264.86 197.782 264.02 197.371C263.199 196.961 262.228 196.755 261.108 196.755C260.119 196.755 259.176 196.933 258.28 197.287C257.403 197.623 256.637 198.118 255.984 198.771C255.331 199.406 254.808 200.19 254.416 201.123C254.043 202.038 253.856 203.065 253.856 204.203C253.856 205.342 254.043 206.378 254.416 207.311C254.808 208.226 255.331 209.01 255.984 209.663C256.637 210.298 257.403 210.793 258.28 211.147C259.176 211.483 260.119 211.651 261.108 211.651C262.303 211.651 263.367 211.409 264.3 210.923C265.233 210.419 266.064 209.729 266.792 208.851L269.088 211.063ZM277.513 200.059C278.558 200.059 279.519 200.246 280.397 200.619C281.274 200.974 282.03 201.478 282.665 202.131C283.299 202.785 283.794 203.559 284.149 204.455C284.503 205.351 284.681 206.322 284.681 207.367C284.681 208.413 284.503 209.383 284.149 210.279C283.794 211.175 283.299 211.95 282.665 212.603C282.03 213.257 281.274 213.77 280.397 214.143C279.519 214.498 278.558 214.675 277.513 214.675C276.467 214.675 275.506 214.498 274.629 214.143C273.751 213.77 272.995 213.257 272.361 212.603C271.726 211.95 271.231 211.175 270.877 210.279C270.522 209.383 270.345 208.413 270.345 207.367C270.345 206.322 270.522 205.351 270.877 204.455C271.231 203.559 271.726 202.785 272.361 202.131C272.995 201.478 273.751 200.974 274.629 200.619C275.506 200.246 276.467 200.059 277.513 200.059ZM277.513 211.791C278.035 211.791 278.539 211.689 279.025 211.483C279.51 211.278 279.939 210.989 280.313 210.615C280.705 210.242 281.013 209.785 281.237 209.243C281.461 208.683 281.573 208.058 281.573 207.367C281.573 206.677 281.461 206.061 281.237 205.519C281.013 204.959 280.705 204.493 280.313 204.119C279.939 203.746 279.51 203.457 279.025 203.251C278.539 203.046 278.035 202.943 277.513 202.943C276.99 202.943 276.486 203.046 276.001 203.251C275.515 203.457 275.077 203.746 274.685 204.119C274.311 204.493 274.013 204.959 273.789 205.519C273.565 206.061 273.453 206.677 273.453 207.367C273.453 208.058 273.565 208.683 273.789 209.243C274.013 209.785 274.311 210.242 274.685 210.615C275.077 210.989 275.515 211.278 276.001 211.483C276.486 211.689 276.99 211.791 277.513 211.791ZM289.709 202.355H289.877C290.288 201.702 290.867 201.161 291.613 200.731C292.379 200.283 293.237 200.059 294.189 200.059C295.925 200.059 297.223 200.582 298.081 201.627C298.94 202.654 299.369 204.026 299.369 205.743V214.227H296.261V206.163C296.261 204.969 295.981 204.138 295.421 203.671C294.88 203.186 294.161 202.943 293.265 202.943C292.724 202.943 292.248 203.055 291.837 203.279C291.427 203.503 291.072 203.811 290.773 204.203C290.475 204.577 290.251 205.015 290.101 205.519C289.952 206.005 289.877 206.518 289.877 207.059V214.227H286.769V200.507H289.709V202.355ZM305.323 202.355H305.491C305.901 201.702 306.48 201.161 307.227 200.731C307.992 200.283 308.851 200.059 309.803 200.059C311.539 200.059 312.836 200.582 313.695 201.627C314.553 202.654 314.983 204.026 314.983 205.743V214.227H311.875V206.163C311.875 204.969 311.595 204.138 311.035 203.671C310.493 203.186 309.775 202.943 308.879 202.943C308.337 202.943 307.861 203.055 307.451 203.279C307.04 203.503 306.685 203.811 306.387 204.203C306.088 204.577 305.864 205.015 305.715 205.519C305.565 206.005 305.491 206.518 305.491 207.059V214.227H302.383V200.507H305.323V202.355ZM330.708 210.951C330.129 212.015 329.308 212.902 328.244 213.611C327.18 214.321 325.873 214.675 324.324 214.675C323.297 214.675 322.345 214.498 321.468 214.143C320.609 213.77 319.863 213.257 319.228 212.603C318.593 211.95 318.099 211.185 317.744 210.307C317.389 209.411 317.212 208.431 317.212 207.367C317.212 206.378 317.38 205.445 317.716 204.567C318.052 203.671 318.519 202.897 319.116 202.243C319.732 201.571 320.469 201.039 321.328 200.647C322.187 200.255 323.139 200.059 324.184 200.059C325.248 200.059 326.191 200.237 327.012 200.591C327.852 200.946 328.561 201.441 329.14 202.075C329.719 202.71 330.157 203.475 330.456 204.371C330.773 205.267 330.932 206.247 330.932 207.311C330.932 207.405 330.932 207.489 330.932 207.563C330.913 207.657 330.904 207.741 330.904 207.815C330.885 207.89 330.876 207.965 330.876 208.039H320.32C320.376 208.693 320.535 209.262 320.796 209.747C321.057 210.233 321.375 210.634 321.748 210.951C322.14 211.269 322.569 211.502 323.036 211.651C323.503 211.801 323.96 211.875 324.408 211.875C325.304 211.875 326.041 211.661 326.62 211.231C327.199 210.802 327.675 210.27 328.048 209.635L330.708 210.951ZM327.824 205.659C327.787 205.379 327.693 205.071 327.544 204.735C327.413 204.381 327.199 204.063 326.9 203.783C326.62 203.485 326.247 203.233 325.78 203.027C325.332 202.822 324.781 202.719 324.128 202.719C323.232 202.719 322.457 202.99 321.804 203.531C321.169 204.054 320.74 204.763 320.516 205.659H327.824ZM346.102 210.727C345.841 211.269 345.514 211.782 345.122 212.267C344.749 212.734 344.301 213.154 343.778 213.527C343.274 213.882 342.686 214.162 342.014 214.367C341.342 214.573 340.605 214.675 339.802 214.675C338.757 214.675 337.795 214.498 336.918 214.143C336.041 213.77 335.285 213.257 334.65 212.603C334.015 211.95 333.521 211.175 333.166 210.279C332.811 209.383 332.634 208.413 332.634 207.367C332.634 206.322 332.811 205.351 333.166 204.455C333.521 203.559 334.015 202.785 334.65 202.131C335.285 201.478 336.041 200.974 336.918 200.619C337.795 200.246 338.757 200.059 339.802 200.059C340.605 200.059 341.333 200.162 341.986 200.367C342.658 200.573 343.246 200.862 343.75 201.235C344.273 201.59 344.721 202.01 345.094 202.495C345.467 202.962 345.766 203.457 345.99 203.979L343.134 205.183C342.817 204.474 342.378 203.923 341.818 203.531C341.258 203.139 340.549 202.943 339.69 202.943C339.167 202.943 338.663 203.055 338.178 203.279C337.711 203.485 337.291 203.783 336.918 204.175C336.563 204.549 336.274 205.006 336.05 205.547C335.845 206.089 335.742 206.695 335.742 207.367C335.742 208.039 335.845 208.646 336.05 209.187C336.274 209.729 336.563 210.195 336.918 210.587C337.291 210.961 337.711 211.259 338.178 211.483C338.663 211.689 339.167 211.791 339.69 211.791C340.549 211.791 341.277 211.595 341.874 211.203C342.49 210.793 342.966 210.233 343.302 209.523L346.102 210.727ZM349.723 203.251H347.315V200.507H349.723V196.307H352.831V200.507H356.219V203.251H352.831V209.355C352.831 209.691 352.868 209.999 352.943 210.279C353.017 210.559 353.129 210.793 353.279 210.979C353.596 211.334 353.997 211.511 354.483 211.511C354.781 211.511 355.015 211.493 355.183 211.455C355.351 211.399 355.528 211.325 355.715 211.231L356.667 213.975C356.275 214.125 355.864 214.237 355.435 214.311C355.005 214.405 354.52 214.451 353.979 214.451C353.325 214.451 352.747 214.349 352.243 214.143C351.739 213.938 351.3 213.658 350.927 213.303C350.124 212.501 349.723 211.409 349.723 210.027V203.251Z" fill="white"/>
<path d="M231.616 39.1793H234.78V56.2033H243.376V59.2273H231.616V39.1793ZM258.317 55.9513C257.739 57.0153 256.917 57.902 255.853 58.6113C254.789 59.3206 253.483 59.6753 251.933 59.6753C250.907 59.6753 249.955 59.498 249.077 59.1433C248.219 58.77 247.472 58.2566 246.837 57.6033C246.203 56.95 245.708 56.1846 245.353 55.3073C244.999 54.4113 244.821 53.4313 244.821 52.3673C244.821 51.378 244.989 50.4446 245.325 49.5673C245.661 48.6713 246.128 47.8966 246.725 47.2433C247.341 46.5713 248.079 46.0393 248.937 45.6473C249.796 45.2553 250.748 45.0593 251.793 45.0593C252.857 45.0593 253.8 45.2366 254.621 45.5913C255.461 45.946 256.171 46.4406 256.749 47.0753C257.328 47.71 257.767 48.4753 258.065 49.3713C258.383 50.2673 258.541 51.2473 258.541 52.3113C258.541 52.4046 258.541 52.4886 258.541 52.5633C258.523 52.6566 258.513 52.7406 258.513 52.8153C258.495 52.89 258.485 52.9646 258.485 53.0393H247.929C247.985 53.6926 248.144 54.262 248.405 54.7473C248.667 55.2326 248.984 55.634 249.357 55.9513C249.749 56.2686 250.179 56.502 250.645 56.6513C251.112 56.8006 251.569 56.8753 252.017 56.8753C252.913 56.8753 253.651 56.6606 254.229 56.2313C254.808 55.802 255.284 55.27 255.657 54.6353L258.317 55.9513ZM255.433 50.6593C255.396 50.3793 255.303 50.0713 255.153 49.7353C255.023 49.3806 254.808 49.0633 254.509 48.7833C254.229 48.4846 253.856 48.2326 253.389 48.0273C252.941 47.822 252.391 47.7193 251.737 47.7193C250.841 47.7193 250.067 47.99 249.413 48.5313C248.779 49.054 248.349 49.7633 248.125 50.6593H255.433ZM269.707 57.5473H269.539C269.129 58.0886 268.597 58.5833 267.943 59.0313C267.29 59.4606 266.459 59.6753 265.451 59.6753C264.723 59.6753 264.042 59.554 263.407 59.3113C262.773 59.0873 262.222 58.77 261.755 58.3593C261.289 57.93 260.915 57.4353 260.635 56.8753C260.374 56.2966 260.243 55.662 260.243 54.9713C260.243 54.2433 260.383 53.59 260.663 53.0113C260.962 52.4326 261.363 51.9473 261.867 51.5553C262.39 51.1633 263.006 50.8646 263.715 50.6593C264.425 50.4353 265.19 50.3233 266.011 50.3233C266.926 50.3233 267.691 50.4166 268.307 50.6033C268.923 50.7713 269.39 50.93 269.707 51.0793V50.5473C269.707 50.1366 269.614 49.754 269.427 49.3993C269.259 49.0446 269.017 48.746 268.699 48.5033C268.401 48.242 268.055 48.046 267.663 47.9153C267.271 47.766 266.861 47.6913 266.431 47.6913C265.741 47.6913 265.115 47.8313 264.555 48.1113C264.014 48.3726 263.529 48.802 263.099 49.3993L260.635 47.7753C261.289 46.8793 262.101 46.2073 263.071 45.7593C264.042 45.2926 265.143 45.0593 266.375 45.0593C268.41 45.0593 269.978 45.5633 271.079 46.5713C272.199 47.5793 272.759 49.0166 272.759 50.8833V59.2273H269.707V57.5473ZM269.707 53.5153C269.297 53.2726 268.839 53.0766 268.335 52.9273C267.831 52.778 267.253 52.7033 266.599 52.7033C265.629 52.7033 264.854 52.9273 264.275 53.3753C263.697 53.8233 263.407 54.3646 263.407 54.9993C263.407 55.3353 263.482 55.634 263.631 55.8953C263.781 56.138 263.967 56.3526 264.191 56.5393C264.434 56.726 264.705 56.866 265.003 56.9593C265.321 57.0526 265.638 57.0993 265.955 57.0993C266.459 57.0993 266.935 57.006 267.383 56.8193C267.85 56.614 268.251 56.3526 268.587 56.0353C268.923 55.6993 269.194 55.3166 269.399 54.8873C269.605 54.458 269.707 54.0006 269.707 53.5153ZM285.935 57.4633H285.767C285.393 58.0606 284.824 58.5833 284.059 59.0313C283.293 59.4606 282.379 59.6753 281.315 59.6753C280.437 59.6753 279.597 59.498 278.795 59.1433C278.011 58.77 277.32 58.2566 276.723 57.6033C276.125 56.95 275.649 56.1846 275.295 55.3073C274.94 54.4113 274.763 53.4313 274.763 52.3673C274.763 51.3033 274.94 50.3326 275.295 49.4553C275.649 48.5593 276.125 47.7846 276.723 47.1313C277.32 46.478 278.011 45.974 278.795 45.6193C279.597 45.246 280.437 45.0593 281.315 45.0593C282.379 45.0593 283.293 45.2833 284.059 45.7313C284.824 46.1606 285.393 46.674 285.767 47.2713H285.935L285.767 45.3673V39.1793H288.875V59.2273H285.935V57.4633ZM281.903 56.7913C282.425 56.7913 282.929 56.6886 283.415 56.4833C283.919 56.278 284.348 55.9886 284.703 55.6153C285.076 55.242 285.375 54.7846 285.599 54.2433C285.823 53.6833 285.935 53.058 285.935 52.3673C285.935 51.6766 285.823 51.0606 285.599 50.5193C285.375 49.9593 285.076 49.4926 284.703 49.1193C284.348 48.746 283.919 48.4566 283.415 48.2513C282.929 48.046 282.425 47.9433 281.903 47.9433C281.361 47.9433 280.848 48.046 280.363 48.2513C279.877 48.4566 279.448 48.7553 279.075 49.1473C278.72 49.5206 278.431 49.978 278.207 50.5193C277.983 51.0606 277.871 51.6766 277.871 52.3673C277.871 53.058 277.983 53.674 278.207 54.2153C278.431 54.7566 278.72 55.2233 279.075 55.6153C279.448 55.9886 279.877 56.278 280.363 56.4833C280.848 56.6886 281.361 56.7913 281.903 56.7913Z" fill="white"/>
<path d="M65.0879 56.0633C64.1359 57.1833 62.9879 58.07 61.6439 58.7233C60.2999 59.358 58.7879 59.6753 57.1079 59.6753C55.6145 59.6753 54.2332 59.414 52.9639 58.8913C51.6945 58.35 50.5839 57.6126 49.6319 56.6793C48.6985 55.7273 47.9612 54.6166 47.4199 53.3473C46.8972 52.078 46.6359 50.6966 46.6359 49.2033C46.6359 47.7286 46.8972 46.3566 47.4199 45.0873C47.9612 43.7993 48.6985 42.6886 49.6319 41.7553C50.5839 40.8033 51.6945 40.066 52.9639 39.5433C54.2332 39.002 55.6145 38.7313 57.1079 38.7313C58.6572 38.7313 60.0479 39.0206 61.2799 39.5993C62.5119 40.1593 63.5945 40.962 64.5279 42.0073L62.2879 44.1913C61.6159 43.3886 60.8599 42.782 60.0199 42.3713C59.1985 41.9606 58.2279 41.7553 57.1079 41.7553C56.1185 41.7553 55.1759 41.9326 54.2799 42.2873C53.4025 42.6233 52.6372 43.118 51.9839 43.7713C51.3305 44.406 50.8079 45.19 50.4159 46.1233C50.0425 47.038 49.8559 48.0646 49.8559 49.2033C49.8559 50.342 50.0425 51.378 50.4159 52.3113C50.8079 53.226 51.3305 54.01 51.9839 54.6633C52.6372 55.298 53.4025 55.7926 54.2799 56.1473C55.1759 56.4833 56.1185 56.6513 57.1079 56.6513C58.3025 56.6513 59.3665 56.4086 60.2999 55.9233C61.2332 55.4193 62.0639 54.7286 62.7919 53.8513L65.0879 56.0633ZM67.4022 45.5073H70.3422V47.5793H70.5102C70.6782 47.2246 70.9022 46.898 71.1822 46.5993C71.4809 46.282 71.8076 46.0206 72.1622 45.8153C72.5356 45.5913 72.9182 45.4233 73.3102 45.3113C73.7209 45.1806 74.1129 45.1153 74.4862 45.1153C74.9342 45.1153 75.3169 45.1526 75.6342 45.2273C75.9516 45.302 76.2409 45.4046 76.5022 45.5353L75.6062 48.4193C75.4009 48.326 75.1676 48.2606 74.9062 48.2233C74.6636 48.1673 74.3649 48.1393 74.0102 48.1393C73.5062 48.1393 73.0396 48.242 72.6102 48.4473C72.1996 48.6526 71.8356 48.9326 71.5182 49.2873C71.2009 49.642 70.9489 50.062 70.7622 50.5473C70.5942 51.0326 70.5102 51.546 70.5102 52.0873V59.2273H67.4022V45.5073ZM90.04 55.9513C89.4613 57.0153 88.64 57.902 87.576 58.6113C86.512 59.3206 85.2053 59.6753 83.656 59.6753C82.6293 59.6753 81.6773 59.498 80.8 59.1433C79.9413 58.77 79.1947 58.2566 78.56 57.6033C77.9253 56.95 77.4307 56.1846 77.076 55.3073C76.7213 54.4113 76.544 53.4313 76.544 52.3673C76.544 51.378 76.712 50.4446 77.048 49.5673C77.384 48.6713 77.8507 47.8966 78.448 47.2433C79.064 46.5713 79.8013 46.0393 80.66 45.6473C81.5187 45.2553 82.4707 45.0593 83.516 45.0593C84.58 45.0593 85.5227 45.2366 86.344 45.5913C87.184 45.946 87.8933 46.4406 88.472 47.0753C89.0507 47.71 89.4893 48.4753 89.788 49.3713C90.1053 50.2673 90.264 51.2473 90.264 52.3113C90.264 52.4046 90.264 52.4886 90.264 52.5633C90.2453 52.6566 90.236 52.7406 90.236 52.8153C90.2173 52.89 90.208 52.9646 90.208 53.0393H79.652C79.708 53.6926 79.8667 54.262 80.128 54.7473C80.3893 55.2326 80.7067 55.634 81.08 55.9513C81.472 56.2686 81.9013 56.502 82.368 56.6513C82.8347 56.8006 83.292 56.8753 83.74 56.8753C84.636 56.8753 85.3733 56.6606 85.952 56.2313C86.5307 55.802 87.0067 55.27 87.38 54.6353L90.04 55.9513ZM87.156 50.6593C87.1187 50.3793 87.0253 50.0713 86.876 49.7353C86.7453 49.3806 86.5307 49.0633 86.232 48.7833C85.952 48.4846 85.5787 48.2326 85.112 48.0273C84.664 47.822 84.1133 47.7193 83.46 47.7193C82.564 47.7193 81.7893 47.99 81.136 48.5313C80.5013 49.054 80.072 49.7633 79.848 50.6593H87.156ZM101.43 57.5473H101.262C100.851 58.0886 100.319 58.5833 99.6659 59.0313C99.0126 59.4606 98.1819 59.6753 97.1739 59.6753C96.4459 59.6753 95.7646 59.554 95.1299 59.3113C94.4952 59.0873 93.9446 58.77 93.4779 58.3593C93.0112 57.93 92.6379 57.4353 92.3579 56.8753C92.0966 56.2966 91.9659 55.662 91.9659 54.9713C91.9659 54.2433 92.1059 53.59 92.3859 53.0113C92.6846 52.4326 93.0859 51.9473 93.5899 51.5553C94.1126 51.1633 94.7286 50.8646 95.4379 50.6593C96.1472 50.4353 96.9126 50.3233 97.7339 50.3233C98.6486 50.3233 99.4139 50.4166 100.03 50.6033C100.646 50.7713 101.113 50.93 101.43 51.0793V50.5473C101.43 50.1366 101.337 49.754 101.15 49.3993C100.982 49.0446 100.739 48.746 100.422 48.5033C100.123 48.242 99.7779 48.046 99.3859 47.9153C98.9939 47.766 98.5832 47.6913 98.1539 47.6913C97.4632 47.6913 96.8379 47.8313 96.2779 48.1113C95.7366 48.3726 95.2512 48.802 94.8219 49.3993L92.3579 47.7753C93.0112 46.8793 93.8232 46.2073 94.7939 45.7593C95.7646 45.2926 96.8659 45.0593 98.0979 45.0593C100.133 45.0593 101.701 45.5633 102.802 46.5713C103.922 47.5793 104.482 49.0166 104.482 50.8833V59.2273H101.43V57.5473ZM101.43 53.5153C101.019 53.2726 100.562 53.0766 100.058 52.9273C99.5539 52.778 98.9752 52.7033 98.3219 52.7033C97.3512 52.7033 96.5766 52.9273 95.9979 53.3753C95.4192 53.8233 95.1299 54.3646 95.1299 54.9993C95.1299 55.3353 95.2046 55.634 95.3539 55.8953C95.5032 56.138 95.6899 56.3526 95.9139 56.5393C96.1566 56.726 96.4272 56.866 96.7259 56.9593C97.0432 57.0526 97.3606 57.0993 97.6779 57.0993C98.1819 57.0993 98.6579 57.006 99.1059 56.8193C99.5726 56.614 99.9739 56.3526 100.31 56.0353C100.646 55.6993 100.917 55.3166 101.122 54.8873C101.327 54.458 101.43 54.0006 101.43 53.5153ZM108.645 48.2513H106.237V45.5073H108.645V41.3073H111.753V45.5073H115.141V48.2513H111.753V54.3553C111.753 54.6913 111.79 54.9993 111.865 55.2793C111.939 55.5593 112.051 55.7926 112.201 55.9793C112.518 56.334 112.919 56.5113 113.405 56.5113C113.703 56.5113 113.937 56.4926 114.105 56.4553C114.273 56.3993 114.45 56.3246 114.637 56.2313L115.589 58.9753C115.197 59.1246 114.786 59.2366 114.357 59.3113C113.927 59.4046 113.442 59.4513 112.901 59.4513C112.247 59.4513 111.669 59.3486 111.165 59.1433C110.661 58.938 110.222 58.658 109.849 58.3033C109.046 57.5006 108.645 56.4086 108.645 55.0273V48.2513ZM130.29 55.9513C129.711 57.0153 128.89 57.902 127.826 58.6113C126.762 59.3206 125.455 59.6753 123.906 59.6753C122.879 59.6753 121.927 59.498 121.05 59.1433C120.191 58.77 119.445 58.2566 118.81 57.6033C118.175 56.95 117.681 56.1846 117.326 55.3073C116.971 54.4113 116.794 53.4313 116.794 52.3673C116.794 51.378 116.962 50.4446 117.298 49.5673C117.634 48.6713 118.101 47.8966 118.698 47.2433C119.314 46.5713 120.051 46.0393 120.91 45.6473C121.769 45.2553 122.721 45.0593 123.766 45.0593C124.83 45.0593 125.773 45.2366 126.594 45.5913C127.434 45.946 128.143 46.4406 128.722 47.0753C129.301 47.71 129.739 48.4753 130.038 49.3713C130.355 50.2673 130.514 51.2473 130.514 52.3113C130.514 52.4046 130.514 52.4886 130.514 52.5633C130.495 52.6566 130.486 52.7406 130.486 52.8153C130.467 52.89 130.458 52.9646 130.458 53.0393H119.902C119.958 53.6926 120.117 54.262 120.378 54.7473C120.639 55.2326 120.957 55.634 121.33 55.9513C121.722 56.2686 122.151 56.502 122.618 56.6513C123.085 56.8006 123.542 56.8753 123.99 56.8753C124.886 56.8753 125.623 56.6606 126.202 56.2313C126.781 55.802 127.257 55.27 127.63 54.6353L130.29 55.9513ZM127.406 50.6593C127.369 50.3793 127.275 50.0713 127.126 49.7353C126.995 49.3806 126.781 49.0633 126.482 48.7833C126.202 48.4846 125.829 48.2326 125.362 48.0273C124.914 47.822 124.363 47.7193 123.71 47.7193C122.814 47.7193 122.039 47.99 121.386 48.5313C120.751 49.054 120.322 49.7633 120.098 50.6593H127.406Z" fill="white"/>
</svg>
