<svg width="274" height="280" viewBox="0 0 274 280" fill="none" xmlns="http://www.w3.org/2000/svg">
<circle cx="80.309" cy="80.309" r="77.809" fill="#EA4235" stroke="black" stroke-width="5"/>
<circle cx="193.635" cy="80.309" r="77.809" fill="#4285F4" stroke="black" stroke-width="5"/>
<circle cx="193.635" cy="199.691" r="77.809" fill="#109D59" stroke="black" stroke-width="5"/>
<circle cx="80.309" cy="199.691" r="77.809" fill="#FCBC03" stroke="black" stroke-width="5"/>
<rect x="30.4712" y="94.776" width="208.677" height="100.252" rx="33.5" fill="white" stroke="black" stroke-width="5"/>
<path d="M149.146 152.861C149.637 152.861 150.084 152.922 150.492 153.036C150.906 153.143 151.262 153.278 151.566 153.438L151.062 154.994C150.803 154.853 150.525 154.736 150.233 154.646C149.949 154.548 149.637 154.498 149.301 154.498C148.696 154.498 148.233 154.679 147.916 155.034C147.596 155.383 147.437 155.836 147.437 156.39C147.437 156.909 147.54 157.419 147.747 157.918C147.933 158.361 148.189 158.835 148.516 159.34H151.579V161.029H149.068V164.731H144.873C144.397 164.731 144.061 164.758 143.863 164.812C143.673 164.858 143.508 164.933 143.372 165.04C143.139 165.228 143.022 165.496 143.022 165.845C143.022 166.23 143.129 166.552 143.346 166.811C143.559 167.072 143.79 167.303 144.032 167.508C144.731 167.24 145.498 167.106 146.336 167.105C147.456 167.105 148.388 167.407 149.133 168.004C149.884 168.604 150.259 169.406 150.259 170.405C150.259 171.434 149.941 172.242 149.314 172.832C148.682 173.422 147.799 173.798 146.66 173.959C147.1 174.147 147.557 174.324 148.032 174.495C148.514 174.673 149.016 174.844 149.534 175.005L148.771 176.655C147.906 176.243 147.077 175.813 146.284 175.367C145.498 174.918 144.76 174.472 144.07 174.026C143.171 173.983 142.459 173.849 141.935 173.624C141.417 173.393 141.158 173.02 141.158 172.511C141.158 172.172 141.255 171.887 141.456 171.652C141.663 171.421 141.964 171.304 142.362 171.304C142.663 171.304 142.977 171.391 143.307 171.559C143.634 171.73 144.026 172.011 144.485 172.403C144.699 172.43 144.89 172.443 145.055 172.443C146.123 172.443 146.948 172.283 147.527 171.961C148.113 171.639 148.407 171.129 148.407 170.432C148.407 169.915 148.22 169.517 147.851 169.238C147.479 168.953 146.945 168.809 146.246 168.809C145.806 168.809 145.359 168.862 144.912 168.97C144.472 169.077 144.077 169.221 143.734 169.398C143.016 168.953 142.414 168.43 141.922 167.83C141.436 167.233 141.196 166.528 141.196 165.724C141.196 165.288 141.268 164.913 141.417 164.598C141.572 164.286 141.779 164.027 142.038 163.819C142.391 163.551 142.803 163.361 143.269 163.243C143.741 163.119 144.356 163.055 145.106 163.055H147.23V161.029H138.15V174.053H136.299V167.012H132.169V168.286C132.169 168.725 132.059 169.057 131.846 169.278C131.629 169.503 131.347 169.613 131.004 169.613C130.622 169.613 130.231 169.449 129.826 169.117C129.418 168.789 129.069 168.386 128.777 167.91C128.493 167.437 128.351 166.978 128.351 166.528C128.351 166.19 128.454 165.905 128.661 165.67C128.868 165.439 129.231 165.321 129.748 165.321H136.299V161.029H127.509V159.34H146.654C146.376 158.84 146.135 158.322 145.935 157.784C145.718 157.187 145.611 156.603 145.611 156.04C145.611 154.977 145.948 154.183 146.621 153.653C147.301 153.127 148.142 152.861 149.146 152.861ZM198.23 152.861C199.145 152.861 199.903 153.09 200.508 153.546C201.12 153.995 201.648 154.696 202.088 155.651C202.535 156.6 202.954 157.831 203.343 159.34H205.855V161.029H203.512V174.053H201.66V161.029H197.596V174.053H195.758V165.657C195.661 165.64 195.553 165.63 195.434 165.63C195.071 165.63 194.696 165.73 194.308 165.925C193.926 166.113 193.56 166.462 193.207 166.972C192.861 167.475 192.553 168.192 192.288 169.131L190.527 168.567C190.709 167.843 190.949 167.206 191.253 166.649C190.891 166.365 190.521 166.137 190.152 165.966C189.79 165.798 189.378 165.711 188.922 165.711C188.301 165.711 187.828 165.895 187.511 166.261C187.191 166.619 187.032 167.079 187.032 167.642C187.032 168.242 187.194 168.815 187.524 169.358C187.851 169.905 188.321 170.478 188.936 171.075C189.557 171.675 190.314 172.35 191.214 173.101L189.983 174.335C189.084 173.55 188.275 172.799 187.55 172.081C186.825 171.367 186.246 170.642 185.815 169.908C185.392 169.177 185.181 168.389 185.181 167.548C185.181 166.792 185.334 166.164 185.642 165.658C185.517 165.641 185.39 165.63 185.261 165.63C184.898 165.63 184.522 165.73 184.134 165.925C183.752 166.113 183.387 166.462 183.034 166.972C182.688 167.475 182.38 168.192 182.114 169.131L180.354 168.567C180.535 167.843 180.775 167.206 181.079 166.649C180.733 166.364 180.37 166.137 179.991 165.966C179.619 165.798 179.205 165.711 178.749 165.711C178.128 165.711 177.655 165.895 177.338 166.261C177.018 166.619 176.858 167.078 176.858 167.642C176.858 168.242 177.021 168.815 177.351 169.358C177.678 169.905 178.147 170.478 178.762 171.075C179.383 171.675 180.14 172.35 181.04 173.101L179.811 174.335C178.911 173.55 178.101 172.799 177.376 172.081C176.651 171.367 176.072 170.642 175.642 169.908C175.218 169.177 175.007 168.389 175.007 167.548C175.007 166.717 175.192 166.039 175.564 165.51C175.942 164.983 176.409 164.597 176.962 164.355C177.512 164.107 178.076 163.98 178.646 163.98C179.309 163.981 179.917 164.098 180.471 164.329C181.031 164.554 181.561 164.879 182.063 165.309C182.959 164.423 184.073 163.98 185.403 163.98C185.61 163.98 185.831 164.001 186.064 164.034C186.303 164.061 186.507 164.115 186.672 164.195L186.537 164.701C186.727 164.565 186.931 164.449 187.148 164.355C187.708 164.107 188.265 163.981 188.818 163.98C189.482 163.98 190.09 164.098 190.644 164.329C191.203 164.554 191.735 164.879 192.236 165.309C193.117 164.423 194.221 163.98 195.551 163.98H195.758V161.029H170.816V164.946H169.703C168.797 164.946 168.075 165.006 167.541 165.12C167.014 165.227 166.56 165.409 166.182 165.657C165.826 165.899 165.56 166.204 165.379 166.569C165.198 166.928 165.107 167.357 165.107 167.856C165.107 168.698 165.405 169.392 166.001 169.936C166.603 170.472 167.532 170.74 168.784 170.74H169.056C169.15 170.74 169.25 170.733 169.354 170.713C169.257 170.401 169.211 170.13 169.211 169.896C169.211 169.359 169.37 168.976 169.69 168.741C170.017 168.5 170.37 168.38 170.752 168.38C171.399 168.38 171.894 168.574 172.24 168.956C172.583 169.342 172.759 169.761 172.759 170.217C172.759 170.726 172.645 171.123 172.422 171.397C172.205 171.676 171.93 171.881 171.594 172.015C171.775 172.4 171.988 172.792 172.24 173.194C172.489 173.597 172.804 174.07 173.186 174.616L171.658 175.421C171.338 174.884 171.031 174.341 170.739 173.798C170.454 173.245 170.221 172.751 170.04 172.322C169.859 172.359 169.658 172.39 169.444 172.417C169.228 172.437 169.007 172.443 168.784 172.443C168.144 172.443 167.503 172.363 166.855 172.202C166.208 172.034 165.612 171.766 165.068 171.397C164.531 171.022 164.101 170.525 163.774 169.908C163.444 169.285 163.282 168.52 163.282 167.615C163.282 166.928 163.392 166.338 163.618 165.845C163.851 165.345 164.165 164.919 164.564 164.57C165.062 164.114 165.677 163.786 166.402 163.578C167.134 163.374 167.949 163.27 168.849 163.27H168.965V161.029H160.209V174.053H158.357V161.029H156.325V159.34H158.202C157.985 158.948 157.817 158.542 157.697 158.119C157.584 157.69 157.529 157.241 157.529 156.765C157.529 155.605 157.93 154.666 158.732 153.948C159.535 153.224 160.626 152.861 162.008 152.861C163.904 152.861 165.543 153.438 166.915 154.592C168.249 155.713 169.414 157.299 170.415 159.34H195.329C195.109 158.85 194.936 158.382 194.812 157.932C194.676 157.422 194.605 156.899 194.605 156.362C194.605 155.353 194.925 154.518 195.563 153.854C196.203 153.194 197.09 152.861 198.23 152.861ZM198.333 154.552C197.721 154.552 197.255 154.747 196.935 155.129C196.618 155.514 196.456 156.048 196.456 156.725C196.456 157.261 196.534 157.751 196.689 158.187C196.819 158.561 196.974 158.945 197.153 159.34H201.608C201.185 157.704 200.741 156.497 200.275 155.719C199.809 154.941 199.162 154.552 198.333 154.552ZM162.306 154.552C161.39 154.552 160.675 154.777 160.157 155.223C159.639 155.672 159.38 156.275 159.38 157.033C159.38 157.509 159.448 157.931 159.587 158.307C159.723 158.682 159.891 159.028 160.092 159.34H168.547C167.635 157.758 166.684 156.571 165.685 155.785C164.649 154.964 163.522 154.552 162.306 154.552Z" fill="black"/>
<rect x="0.0721961" y="-0.489681" width="24.1148" height="10.2067" rx="5.10334" transform="matrix(0.802682 -0.596407 -0.596407 -0.802682 90.6108 180.198)" fill="#F8AC02" stroke="#1A1A1A" stroke-width="0.7"/>
<rect x="90.9608" y="149.49" width="24.1148" height="10.2067" rx="5.10334" transform="rotate(36.613 90.9608 149.49)" fill="#34A853" stroke="#1A1A1A" stroke-width="0.7"/>
<rect x="0.0721961" y="-0.489681" width="24.1148" height="10.2067" rx="5.10334" transform="matrix(0.802682 -0.596407 -0.596407 -0.802682 63.2272 171.715)" fill="#E94335" stroke="#1A1A1A" stroke-width="0.7"/>
<rect x="63.5772" y="157.973" width="24.1148" height="10.2067" rx="5.10334" transform="rotate(36.613 63.5772 157.973)" fill="#4387FB" stroke="#1A1A1A" stroke-width="0.7"/>
<path d="M71.275 127.3H80C80.0333 127.517 80.0667 127.75 80.1 128C80.1333 128.233 80.15 128.483 80.15 128.75C80.15 129.817 79.9833 130.875 79.65 131.925C79.3167 132.975 78.75 133.908 77.95 134.725C77.1333 135.575 76.175 136.233 75.075 136.7C73.975 137.167 72.7167 137.4 71.3 137.4C70.0167 137.4 68.8 137.167 67.65 136.7C66.5167 136.233 65.525 135.583 64.675 134.75C63.825 133.917 63.15 132.933 62.65 131.8C62.1667 130.65 61.925 129.4 61.925 128.05C61.925 126.7 62.1667 125.458 62.65 124.325C63.15 123.175 63.825 122.183 64.675 121.35C65.525 120.517 66.5167 119.867 67.65 119.4C68.8 118.933 70.0167 118.7 71.3 118.7C72.6667 118.7 73.925 118.942 75.075 119.425C76.2417 119.908 77.2167 120.583 78 121.45L76.025 123.425C75.4417 122.775 74.75 122.275 73.95 121.925C73.1667 121.575 72.275 121.4 71.275 121.4C70.425 121.4 69.6083 121.558 68.825 121.875C68.0417 122.192 67.35 122.642 66.75 123.225C66.15 123.792 65.675 124.483 65.325 125.3C64.975 126.117 64.8 127.033 64.8 128.05C64.8 129.067 64.975 129.983 65.325 130.8C65.675 131.617 66.15 132.317 66.75 132.9C67.35 133.467 68.0417 133.908 68.825 134.225C69.6083 134.542 70.4333 134.7 71.3 134.7C72.45 134.7 73.375 134.525 74.075 134.175C74.7917 133.825 75.3917 133.417 75.875 132.95C76.225 132.617 76.5333 132.183 76.8 131.65C77.0667 131.1 77.2417 130.5 77.325 129.85H71.275V127.3ZM82.9416 119.1H88.6916C90.1083 119.1 91.3749 119.325 92.4916 119.775C93.6249 120.208 94.5833 120.817 95.3666 121.6C96.1666 122.383 96.7749 123.325 97.1916 124.425C97.6249 125.525 97.8416 126.733 97.8416 128.05C97.8416 129.367 97.6249 130.575 97.1916 131.675C96.7749 132.775 96.1666 133.717 95.3666 134.5C94.5833 135.283 93.6249 135.9 92.4916 136.35C91.3749 136.783 90.1083 137 88.6916 137H82.9416V119.1ZM88.6416 134.3C90.6583 134.3 92.2166 133.75 93.3166 132.65C94.4166 131.55 94.9666 130.017 94.9666 128.05C94.9666 126.1 94.4166 124.575 93.3166 123.475C92.2166 122.358 90.6583 121.8 88.6416 121.8H85.7666V134.3H88.6416ZM109.044 127.3H117.769C117.802 127.517 117.835 127.75 117.869 128C117.902 128.233 117.919 128.483 117.919 128.75C117.919 129.817 117.752 130.875 117.419 131.925C117.085 132.975 116.519 133.908 115.719 134.725C114.902 135.575 113.944 136.233 112.844 136.7C111.744 137.167 110.485 137.4 109.069 137.4C107.785 137.4 106.569 137.167 105.419 136.7C104.285 136.233 103.294 135.583 102.444 134.75C101.594 133.917 100.919 132.933 100.419 131.8C99.9352 130.65 99.6936 129.4 99.6936 128.05C99.6936 126.7 99.9352 125.458 100.419 124.325C100.919 123.175 101.594 122.183 102.444 121.35C103.294 120.517 104.285 119.867 105.419 119.4C106.569 118.933 107.785 118.7 109.069 118.7C110.435 118.7 111.694 118.942 112.844 119.425C114.01 119.908 114.985 120.583 115.769 121.45L113.794 123.425C113.21 122.775 112.519 122.275 111.719 121.925C110.935 121.575 110.044 121.4 109.044 121.4C108.194 121.4 107.377 121.558 106.594 121.875C105.81 122.192 105.119 122.642 104.519 123.225C103.919 123.792 103.444 124.483 103.094 125.3C102.744 126.117 102.569 127.033 102.569 128.05C102.569 129.067 102.744 129.983 103.094 130.8C103.444 131.617 103.919 132.317 104.519 132.9C105.119 133.467 105.81 133.908 106.594 134.225C107.377 134.542 108.202 134.7 109.069 134.7C110.219 134.7 111.144 134.525 111.844 134.175C112.56 133.825 113.16 133.417 113.644 132.95C113.994 132.617 114.302 132.183 114.569 131.65C114.835 131.1 115.01 130.5 115.094 129.85H109.044V127.3ZM126.203 119.1H129.578L137.528 132.075H137.678L137.528 128.625V119.1H140.328V137H137.378L129.028 123.375H128.878L129.028 126.825V137H126.203V119.1ZM149.203 137.4C148.486 137.4 147.786 137.292 147.103 137.075C146.436 136.875 145.811 136.567 145.228 136.15C144.661 135.733 144.161 135.217 143.728 134.6C143.295 133.983 142.961 133.267 142.728 132.45L145.428 131.35C145.545 131.817 145.711 132.258 145.928 132.675C146.161 133.075 146.436 133.425 146.753 133.725C147.086 134.025 147.453 134.267 147.853 134.45C148.27 134.617 148.728 134.7 149.228 134.7C149.645 134.7 150.045 134.65 150.428 134.55C150.811 134.433 151.145 134.267 151.428 134.05C151.711 133.833 151.936 133.567 152.103 133.25C152.286 132.933 152.378 132.567 152.378 132.15C152.378 131.783 152.311 131.45 152.178 131.15C152.045 130.85 151.836 130.575 151.553 130.325C151.27 130.075 150.895 129.842 150.428 129.625C149.961 129.392 149.403 129.158 148.753 128.925L147.628 128.525C147.145 128.358 146.645 128.142 146.128 127.875C145.628 127.592 145.17 127.258 144.753 126.875C144.353 126.475 144.02 126.008 143.753 125.475C143.503 124.942 143.378 124.317 143.378 123.6C143.378 122.933 143.511 122.308 143.778 121.725C144.061 121.125 144.453 120.6 144.953 120.15C145.453 119.7 146.045 119.35 146.728 119.1C147.428 118.833 148.195 118.7 149.028 118.7C149.895 118.7 150.653 118.825 151.303 119.075C151.97 119.308 152.528 119.608 152.978 119.975C153.428 120.342 153.786 120.75 154.053 121.2C154.336 121.633 154.545 122.042 154.678 122.425L152.128 123.5C152.045 123.25 151.92 123 151.753 122.75C151.603 122.483 151.403 122.25 151.153 122.05C150.903 121.85 150.603 121.683 150.253 121.55C149.92 121.417 149.528 121.35 149.078 121.35C148.678 121.35 148.303 121.408 147.953 121.525C147.603 121.625 147.295 121.775 147.028 121.975C146.778 122.175 146.578 122.408 146.428 122.675C146.278 122.942 146.203 123.233 146.203 123.55C146.203 124.183 146.461 124.7 146.978 125.1C147.511 125.483 148.286 125.85 149.303 126.2L150.428 126.6C151.128 126.833 151.77 127.108 152.353 127.425C152.936 127.742 153.445 128.125 153.878 128.575C154.311 129.008 154.645 129.517 154.878 130.1C155.128 130.683 155.253 131.358 155.253 132.125C155.253 133.058 155.061 133.858 154.678 134.525C154.311 135.175 153.836 135.717 153.253 136.15C152.67 136.583 152.02 136.9 151.303 137.1C150.586 137.3 149.886 137.4 149.203 137.4ZM164.439 137.4C163.423 137.4 162.498 137.233 161.664 136.9C160.831 136.55 160.114 136.058 159.514 135.425C158.914 134.792 158.448 134.025 158.114 133.125C157.798 132.225 157.639 131.225 157.639 130.125V119.1H160.464V130.275C160.464 130.908 160.548 131.5 160.714 132.05C160.881 132.583 161.131 133.05 161.464 133.45C161.798 133.833 162.206 134.142 162.689 134.375C163.189 134.592 163.773 134.7 164.439 134.7C165.089 134.7 165.664 134.592 166.164 134.375C166.664 134.142 167.073 133.833 167.389 133.45C167.723 133.05 167.973 132.583 168.139 132.05C168.306 131.5 168.389 130.908 168.389 130.275V119.1H171.214V130.125C171.214 131.208 171.056 132.2 170.739 133.1C170.439 133.983 169.989 134.742 169.389 135.375C168.806 136.008 168.098 136.508 167.264 136.875C166.431 137.225 165.489 137.4 164.439 137.4ZM178.221 137V121.8H173.221V119.1H186.046V121.8H181.046V137H178.221Z" fill="black"/>
</svg>
