<svg width="480" height="578" viewBox="0 0 480 578" fill="none" xmlns="http://www.w3.org/2000/svg">
<path d="M273.915 272.41C265.412 272.402 258.186 269.406 252.245 263.414C246.303 257.431 243.329 250.162 243.337 241.616C243.346 233.069 246.327 225.814 252.289 219.835C258.243 213.864 265.475 210.875 273.978 210.884L373.332 210.985C381.834 210.994 389.06 213.99 395.002 219.981C400.943 225.964 403.918 233.233 403.909 241.78C403.9 250.327 400.919 257.582 394.957 263.561C389.004 269.531 381.771 272.521 373.269 272.512L273.915 272.41Z" fill="#FF5145" stroke="#202124" stroke-width="2.58219" stroke-miterlimit="10"/>
<path d="M100.538 406.073C92.0356 406.064 84.8094 403.068 78.8682 397.077C72.9269 391.094 69.9521 383.825 69.9609 375.278C69.9696 366.731 72.9508 359.477 78.9129 353.497C84.8664 347.527 92.0987 344.537 100.601 344.546L199.955 344.648C208.458 344.657 215.684 347.652 221.625 353.644C227.566 359.627 230.541 366.896 230.532 375.443C230.524 383.989 227.543 391.244 221.58 397.223C215.627 403.194 208.395 406.183 199.892 406.175L100.538 406.073Z" fill="#FF5145" stroke="#202124" stroke-width="2.58219" stroke-miterlimit="10"/>
<path d="M282.926 250.826C285.441 248.31 286.692 245.255 286.696 241.668C286.699 238.082 285.446 235.024 282.945 232.503C280.435 229.982 277.403 228.715 273.831 228.711C270.259 228.708 267.216 229.968 264.71 232.484C262.195 235.001 260.944 238.056 260.941 241.642C260.937 245.228 262.19 248.286 264.691 250.807C267.192 253.329 270.233 254.596 273.805 254.599C277.377 254.603 280.42 253.342 282.926 250.826Z" fill="#FFBB00" stroke="#202124" stroke-width="2.58219" stroke-miterlimit="10"/>
<path d="M109.55 384.489C112.065 381.973 113.316 378.917 113.319 375.331C113.323 371.745 112.07 368.687 109.569 366.166C107.059 363.644 104.027 362.378 100.455 362.374C96.8831 362.37 93.8398 363.631 91.3335 366.147C88.8186 368.663 87.5679 371.719 87.5642 375.305C87.5606 378.891 88.8136 381.949 91.3147 384.47C93.8158 386.991 96.8566 388.258 100.428 388.262C104 388.266 107.044 387.005 109.55 384.489Z" fill="#FFBB00" stroke="#202124" stroke-width="2.58219" stroke-miterlimit="10"/>
<path d="M416.321 246.458C407.818 246.449 400.592 243.454 394.651 237.462C388.71 231.479 385.735 224.21 385.744 215.663C385.752 207.117 388.734 199.862 394.696 193.883C400.649 187.912 407.882 184.923 416.384 184.931L501.741 185.019C510.244 185.028 517.47 188.023 523.411 194.015C529.352 199.998 532.327 207.267 532.318 215.814C532.31 224.361 529.328 231.615 523.366 237.594C517.413 243.565 510.181 246.554 501.678 246.546L416.321 246.458Z" fill="#3D8AFF" stroke="#202124" stroke-width="2.58219" stroke-miterlimit="10"/>
<path d="M119.658 272.266C111.156 272.258 103.93 269.262 97.9886 263.27C92.0473 257.288 89.0725 250.018 89.0812 241.472C89.09 232.925 92.0712 225.67 98.0333 219.691C103.987 213.72 111.219 210.731 119.721 210.74L205.079 210.827C213.581 210.836 220.807 213.832 226.749 219.823C232.69 225.806 235.665 233.075 235.656 241.622C235.647 250.169 232.666 257.423 226.704 263.402C220.75 269.373 213.518 272.363 205.016 272.354L119.658 272.266Z" fill="#3D8AFF" stroke="#202124" stroke-width="2.58219" stroke-miterlimit="10"/>
<path d="M425.333 224.874C427.847 222.358 429.098 219.302 429.102 215.716C429.106 212.13 427.853 209.072 425.351 206.551C422.842 204.029 419.809 202.762 416.238 202.759C412.666 202.755 409.622 204.016 407.116 206.532C404.601 209.048 403.35 212.104 403.347 215.69C403.343 219.276 404.596 222.334 407.097 224.855C409.607 227.376 412.639 228.643 416.211 228.647C419.783 228.65 422.826 227.39 425.333 224.874Z" fill="#FF5145" stroke="#202124" stroke-width="2.58219" stroke-miterlimit="10"/>
<path d="M128.67 250.682C131.185 248.166 132.436 245.11 132.439 241.524C132.443 237.938 131.19 234.88 128.689 232.359C126.179 229.838 123.147 228.571 119.575 228.567C116.003 228.563 112.96 229.824 110.454 232.34C107.939 234.856 106.688 237.912 106.684 241.498C106.681 245.084 107.934 248.142 110.435 250.663C112.945 253.185 115.977 254.451 119.549 254.455C123.121 254.459 126.164 253.198 128.67 250.682Z" fill="#FF5145" stroke="#202124" stroke-width="2.58219" stroke-miterlimit="10"/>
<path d="M266.634 426.738C258.131 426.729 250.905 423.733 244.964 417.742C239.023 411.759 236.048 404.49 236.057 395.943C236.065 387.396 239.047 380.142 245.009 374.163C250.962 368.192 258.195 365.202 266.697 365.211L424.073 365.373C432.575 365.381 439.801 368.377 445.742 374.369C451.684 380.351 454.659 387.621 454.65 396.167C454.641 404.714 451.66 411.969 445.698 417.948C439.744 423.919 432.512 426.908 424.01 426.899L266.634 426.738Z" fill="#FFBB00" stroke="#202124" stroke-width="2.58219" stroke-miterlimit="10"/>
<path d="M275.645 405.154C278.16 402.638 279.41 399.582 279.414 395.996C279.418 392.41 278.165 389.352 275.664 386.831C273.154 384.31 270.122 383.043 266.55 383.039C262.978 383.036 259.935 384.296 257.428 386.812C254.913 389.328 253.663 392.384 253.659 395.97C253.655 399.556 254.908 402.614 257.41 405.135C259.911 407.657 262.951 408.924 266.523 408.927C270.095 408.931 273.139 407.67 275.645 405.154Z" fill="#FF5145" stroke="#202124" stroke-width="2.58219" stroke-miterlimit="10"/>
<path d="M453.119 300.039C461.622 300.048 468.848 303.044 474.789 309.035C480.73 315.018 483.705 322.287 483.696 330.834C483.688 339.381 480.706 346.635 474.744 352.614C468.791 358.585 461.558 361.574 453.056 361.566L320.581 361.43C312.078 361.421 304.852 358.425 298.911 352.434C292.97 346.451 289.995 339.182 290.004 330.635C290.012 322.088 292.994 314.834 298.956 308.855C304.909 302.884 312.142 299.894 320.644 299.903L453.119 300.039Z" fill="#38A852" stroke="#202124" stroke-width="2.58219" stroke-miterlimit="10"/>
<path d="M257.515 277.405C266.018 277.414 273.244 280.409 279.185 286.401C285.126 292.384 288.101 299.653 288.092 308.2C288.084 316.746 285.103 324.001 279.14 329.98C273.187 335.951 265.955 338.94 257.452 338.932L124.977 338.796C116.475 338.787 109.248 335.791 103.307 329.8C97.3659 323.817 94.3911 316.548 94.3998 308.001C94.4086 299.454 97.3898 292.2 103.352 286.22C109.305 280.25 116.538 277.26 125.04 277.269L257.515 277.405Z" fill="#E7E9EC" stroke="#202124" stroke-width="2.58219" stroke-miterlimit="10"/>
<path d="M320.505 317.722C316.933 317.718 313.889 318.979 311.383 321.495C308.868 324.011 307.618 327.067 307.614 330.653C307.61 334.239 308.863 337.297 311.364 339.818C313.874 342.34 316.906 343.606 320.478 343.61C324.05 343.614 327.093 342.353 329.6 339.837C332.115 337.321 333.365 334.265 333.369 330.679C333.373 327.093 332.12 324.035 329.618 321.514C327.109 318.992 324.077 317.726 320.505 317.722Z" fill="#FF5145" stroke="#202124" stroke-width="2.58219" stroke-miterlimit="10"/>
<path d="M205.218 295.582C201.647 295.578 198.603 296.839 196.097 299.355C193.582 301.871 192.331 304.926 192.328 308.512C192.324 312.099 193.577 315.157 196.078 317.678C198.579 320.199 201.62 321.466 205.192 321.47C208.764 321.473 211.807 320.213 214.313 317.697C216.828 315.18 218.079 312.125 218.083 308.539C218.086 304.953 216.833 301.895 214.332 299.373C211.823 296.852 208.79 295.585 205.218 295.582Z" fill="#38A852" stroke="#202124" stroke-width="2.58219" stroke-miterlimit="10"/>
</svg>
